<?xml version="1.0" encoding="UTF-8"?>
<!DOCTYPE svg PUBLIC "-//W3C//DTD SVG 1.1//EN" "http://www.w3.org/Graphics/SVG/1.1/DTD/svg11.dtd">
<!-- Creator: CorelDRAW -->
<svg xmlns="http://www.w3.org/2000/svg" xml:space="preserve" width="6.82666in" height="6.82666in" style="shape-rendering:geometricPrecision; text-rendering:geometricPrecision; image-rendering:optimizeQuality; fill-rule:evenodd; clip-rule:evenodd"
viewBox="0 0 6.82666 6.82666"
 xmlns:xlink="http://www.w3.org/1999/xlink">
 <defs>
  <style type="text/css">
   <![CDATA[
    .fil2 {fill:none}
    .fil13 {fill:#0277BD}
    .fil9 {fill:#0288D1}
    .fil1 {fill:#1976D2}
    .fil18 {fill:#1A1A1A}
    .fil0 {fill:#1E88E5}
    .fil5 {fill:#263238}
    .fil15 {fill:#2C2C2C}
    .fil17 {fill:#333333}
    .fil4 {fill:#99CCCC}
    .fil11 {fill:#C1CBCB}
    .fil3 {fill:#D6D6D6}
    .fil16 {fill:#FFFFFE}
    .fil10 {fill:#01579B;fill-rule:nonzero}
    .fil7 {fill:#263238;fill-rule:nonzero}
    .fil14 {fill:#333333;fill-rule:nonzero}
    .fil6 {fill:#669999;fill-rule:nonzero}
    .fil12 {fill:#737C7C;fill-rule:nonzero}
    .fil8 {fill:#757575;fill-rule:nonzero}
   ]]>
  </style>
   <clipPath id="id0">
    <path d="M3.41333 -3.93701e-006c1.88513,0 3.41333,1.5282 3.41333,3.41333 0,1.88513 -1.5282,3.41333 -3.41333,3.41333 -1.88513,0 -3.41333,-1.5282 -3.41333,-3.41333 0,-1.88513 1.5282,-3.41333 3.41333,-3.41333z"/>
   </clipPath>
 </defs>
 <g id="Layer_x0020_1">
  <metadata id="CorelCorpID_0Corel-Layer"/>
  <path class="fil0" d="M3.41333 -3.93701e-006c1.88513,0 3.41333,1.5282 3.41333,3.41333 0,1.88513 -1.5282,3.41333 -3.41333,3.41333 -1.88513,0 -3.41333,-1.5282 -3.41333,-3.41333 0,-1.88513 1.5282,-3.41333 3.41333,-3.41333z"/>
  <g style="clip-path:url(#id0)">
   <g id="_457170464">
    <g>
     <polygon id="_4546060001" class="fil1" points="3.68168,1.58769 7.46795,5.37396 7.47444,5.38262 7.48009,5.39189 7.48483,5.40172 7.48863,5.41204 7.49141,5.42279 7.49313,5.43393 7.49371,5.44538 7.49371,7.37943 7.49313,7.39089 7.49141,7.40202 7.48863,7.41278 7.48483,7.42309 7.48009,7.43292 7.47444,7.44219 7.46795,7.45085 7.46068,7.45885 7.45269,7.46612 7.44402,7.47261 7.43475,7.47826 7.42493,7.483 7.41461,7.4868 7.40385,7.48958 7.39272,7.4913 7.38126,7.49188 6.41423,7.49188 2.62796,3.70561 3.595,3.70561 3.60645,3.70502 3.61758,3.70331 3.62834,3.70053 3.63866,3.69673 3.64848,3.69198 3.65775,3.68633 3.66642,3.67985 3.67441,3.67257 3.68168,3.66458 3.68817,3.65592 3.69382,3.64665 3.69857,3.63682 3.70236,3.6265 3.70515,3.61575 3.70686,3.60462 3.70744,3.59316 3.70744,1.65911 3.70686,1.64765 3.70515,1.63652 3.70236,1.62576 3.69857,1.61545 3.69382,1.60562 3.68817,1.59635 "/>
     <polygon id="_454606024" class="fil1" points="5.27417,4.03095 9.06044,7.81722 9.0602,7.84548 9.05962,7.87297 9.05869,7.8997 9.05742,7.92568 9.05579,7.95093 9.05381,7.97545 9.05146,7.99926 9.04874,8.02237 9.04566,8.04478 9.0422,8.06652 9.03836,8.08758 9.03413,8.10799 9.02952,8.12775 9.0245,8.14687 9.01909,8.16537 9.01328,8.18325 9.00706,8.20053 9.00043,8.21722 8.99337,8.23332 8.9859,8.24886 8.978,8.26383 8.96967,8.27826 8.96091,8.29216 8.9517,8.30552 8.94205,8.31837 8.93195,8.33072 8.92139,8.34257 8.91038,8.35394 8.89891,8.36484 8.88696,8.37528 8.87455,8.38528 8.86166,8.39483 5.07539,4.60856 5.08828,4.599 5.1007,4.58901 5.11264,4.57857 5.12411,4.56767 5.13513,4.5563 5.14568,4.54445 5.15578,4.5321 5.16543,4.51925 5.17464,4.50589 5.18341,4.49199 5.19174,4.47756 5.19963,4.46259 5.20711,4.44705 5.21416,4.43094 5.22079,4.41426 5.22701,4.39698 5.23283,4.37909 5.23824,4.3606 5.24325,4.34148 5.24786,4.32172 5.25209,4.30131 5.25593,4.28025 5.25939,4.25851 5.26248,4.2361 5.26519,4.21299 5.26754,4.18918 5.26952,4.16466 5.27115,4.13941 5.27243,4.11343 5.27335,4.0867 5.27393,4.05921 "/>
     <polygon id="_454606696" class="fil1" points="4.43716,4.72251 8.22343,8.50878 8.22174,8.50878 4.43547,4.72251 "/>
     <polygon id="_454606720" class="fil1" points="4.36618,4.45258 8.15244,8.23885 8.16005,8.24682 8.1673,8.25513 8.17417,8.26375 8.18065,8.27269 8.18674,8.28192 8.19241,8.29143 8.19765,8.30122 8.20245,8.31126 8.2068,8.32154 8.21069,8.33206 8.21409,8.34278 8.217,8.35372 8.21941,8.36485 8.2213,8.37615 8.22266,8.38762 4.43639,4.60135 4.43504,4.58988 4.43315,4.57857 4.43074,4.56745 4.42782,4.55651 4.42442,4.54578 4.42053,4.53527 4.41618,4.52498 4.41138,4.51494 4.40614,4.50516 4.40047,4.49565 4.39439,4.48642 4.3879,4.47748 4.38103,4.46885 4.37378,4.46055 "/>
     <polygon id="_454606432" class="fil1" points="3.92097,4.21036 7.70724,7.99663 7.72226,8.01161 7.73678,8.0271 7.75077,8.04307 7.76422,8.05951 7.77712,8.07641 7.78945,8.09374 7.80119,8.11151 7.81234,8.12969 7.82288,8.14826 7.83279,8.16722 4.04652,4.38095 4.03661,4.36199 4.02607,4.34341 4.01493,4.32524 4.00318,4.30747 3.99085,4.29013 3.97796,4.27324 3.9645,4.2568 3.95051,4.24083 3.936,4.22534 "/>
     <polygon id="_452852024" class="fil1" points="2.86637,5.04706 6.65264,8.83333 6.12185,8.83333 6.11393,8.83293 6.10622,8.83174 6.09877,8.82981 6.09163,8.82719 6.08483,8.8239 6.07841,8.81999 6.07241,8.8155 2.28614,5.02922 2.29214,5.03372 2.29856,5.03763 2.30536,5.04092 2.3125,5.04354 2.31995,5.04547 2.32766,5.04665 2.33559,5.04706 "/>
     <polygon id="_452852312" class="fil1" points="2.62796,3.70561 6.41423,7.49188 5.44721,7.49188 5.43576,7.4913 5.42463,7.48958 5.41387,7.4868 5.40355,7.483 5.39373,7.47826 5.38446,7.47261 5.37579,7.46612 1.58952,3.67985 1.59819,3.68633 1.60746,3.69198 1.61728,3.69673 1.6276,3.70053 1.63836,3.70331 1.64949,3.70502 1.66094,3.70561 "/>
     <polygon id="_452851952" class="fil1" points="2.86637,4.42428 6.65264,8.21055 6.12185,8.21055 6.11393,8.21014 6.10622,8.20896 6.09877,8.20703 6.09163,8.20441 6.08483,8.20111 6.07841,8.1972 6.07241,8.19271 2.28614,4.40644 2.29214,4.41093 2.29856,4.41484 2.30536,4.41813 2.3125,4.42076 2.31995,4.42269 2.32766,4.42387 2.33559,4.42428 "/>
     <polygon id="_452852408" class="fil1" points="4.43547,4.72251 8.22174,8.50878 8.22004,8.51988 8.21785,8.53081 8.21516,8.54157 8.212,8.55213 8.20839,8.56249 8.20431,8.57264 8.19981,8.58256 8.19487,8.59223 8.18953,8.60166 8.18378,8.61082 8.17764,8.6197 8.17113,8.6283 8.16425,8.6366 8.15702,8.64459 8.14945,8.65224 8.14155,8.65957 8.13333,8.66654 8.12481,8.67315 8.116,8.67939 8.10691,8.68524 8.09755,8.69069 8.08794,8.69574 8.07808,8.70035 8.068,8.70454 8.05769,8.70828 8.04718,8.71156 8.03648,8.71437 8.02559,8.7167 8.01453,8.71853 8.00332,8.71985 7.99196,8.72065 7.98046,8.72092 7.83281,8.72092 4.04654,4.93465 4.1942,4.93465 4.20569,4.93438 4.21705,4.93358 4.22826,4.93226 4.23932,4.93043 4.25021,4.9281 4.26091,4.92529 4.27143,4.92201 4.28173,4.91827 4.29181,4.91408 4.30167,4.90946 4.31128,4.90442 4.32064,4.89897 4.32973,4.89311 4.33854,4.88688 4.34706,4.88027 4.35528,4.8733 4.36318,4.86597 4.37075,4.85831 4.37798,4.85033 4.38486,4.84203 4.39137,4.83343 4.39751,4.82455 4.40326,4.81539 4.40861,4.80596 4.41354,4.79628 4.41805,4.78637 4.42212,4.77622 4.42574,4.76586 4.42889,4.7553 4.43158,4.74454 4.43378,4.73361 "/>
     <polygon id="_452852432" class="fil1" points="5.07539,4.60856 8.86166,8.39483 8.84874,8.40365 8.83542,8.41201 8.82169,8.41994 8.80756,8.42744 8.793,8.43452 8.77802,8.44119 8.76261,8.44748 8.74678,8.45337 8.7305,8.4589 8.71378,8.46407 8.69661,8.46888 8.67899,8.47336 8.66091,8.47751 8.64237,8.48134 8.62335,8.48487 8.60387,8.48811 8.5839,8.49106 8.56345,8.49374 8.54251,8.49616 8.52108,8.49833 8.49915,8.50026 8.47671,8.50197 8.45376,8.50346 8.4303,8.50475 8.40631,8.50584 8.3818,8.50675 8.35676,8.50749 8.33119,8.50807 8.30507,8.50851 8.27841,8.5088 8.2512,8.50897 8.22343,8.50902 4.43716,4.72275 4.46493,4.7227 4.49215,4.72253 4.51881,4.72224 4.54492,4.7218 4.5705,4.72122 4.59554,4.72048 4.62005,4.71957 4.64403,4.71848 4.66749,4.71719 4.69044,4.7157 4.71288,4.71399 4.73481,4.71206 4.75624,4.70989 4.77719,4.70747 4.79763,4.70479 4.8176,4.70183 4.83709,4.6986 4.8561,4.69507 4.87464,4.69124 4.89272,4.68709 4.91034,4.68261 4.92751,4.6778 4.94423,4.67263 4.96051,4.6671 4.97635,4.6612 4.99175,4.65492 5.00673,4.64825 5.02129,4.64117 5.03543,4.63367 5.04915,4.62574 5.06247,4.61737 "/>
     <polygon id="_452852000" class="fil1" points="5.27816,1.56849 9.06443,5.35476 9.06044,7.81722 5.27417,4.03095 "/>
     <polygon id="_452852552" class="fil1" points="4.04654,4.93465 7.83281,8.72092 7.8229,8.73989 7.81236,8.75846 7.80122,8.77664 7.78947,8.79441 7.77714,8.81175 7.76425,8.82865 7.7508,8.84509 7.7368,8.86106 7.72229,8.87654 7.70726,8.89154 7.69173,8.90601 7.67572,8.91996 7.65924,8.93337 7.64231,8.94622 7.62494,8.9585 7.60714,8.9702 7.58893,8.9813 7.57032,8.99178 7.55133,9.00164 7.53196,9.01086 7.51225,9.01942 7.49219,9.02731 7.47181,9.03452 7.45111,9.04104 7.43012,9.04683 7.40884,9.05191 7.3873,9.05624 7.36549,9.05981 7.34345,9.06261 7.32118,9.06464 7.2987,9.06586 7.27602,9.06627 6.70819,9.06627 6.70253,9.06598 6.69703,9.06514 6.69172,9.06376 6.68662,9.06189 6.68177,9.05954 6.67719,9.05675 6.67291,9.05355 2.88664,5.26728 2.89092,5.27048 2.8955,5.27327 2.90035,5.27562 2.90545,5.27749 2.91076,5.27887 2.91626,5.27971 2.92192,5.28 3.48976,5.28 3.51243,5.27959 3.53491,5.27837 3.55719,5.27634 3.57922,5.27354 3.60103,5.26996 3.62257,5.26563 3.64385,5.26056 3.66484,5.25476 3.68554,5.24825 3.70592,5.24104 3.72598,5.23315 3.7457,5.22459 3.76506,5.21537 3.78405,5.20551 3.80266,5.19502 3.82087,5.18393 3.83867,5.17223 3.85604,5.15994 3.87298,5.14709 3.88946,5.13369 3.90546,5.11974 3.92099,5.10526 3.93602,5.09027 3.95054,5.07479 3.96453,5.05881 3.97798,5.04237 3.99087,5.02548 4.0032,5.00814 4.01495,4.99037 4.02609,4.97219 4.03663,4.95361 "/>
    </g>
    <path id="_457170368" class="fil1" d="M5.27816 1.56849l-0.00398819 2.46246c-0.000791339,0.305543 -0.0587087,0.477992 -0.198783,0.577606 -0.135661,0.0964764 -0.339035,0.114193 -0.638228,0.114193l0 -0.000240157 -0.00168898 0c-0.0154055,0.119236 -0.118016,0.212138 -0.241276,0.212138l-0.147657 0c-0.102315,0.204268 -0.313874,0.34535 -0.556783,0.34535l-0.567835 0c-0.0305512,0 -0.0555472,-0.0249921 -0.0555472,-0.0555512l0 -0.17739 -0.530787 0c-0.0428189,0 -0.0778425,-0.0350315 -0.0778425,-0.0778504 0,-0.0428189 0.0350236,-0.0778425 0.0778425,-0.0778425l0.530787 0 0 -0.467091 -0.530787 0c-0.0428189,0 -0.0778425,-0.0350315 -0.0778425,-0.0778465 0,-0.0428189 0.0350236,-0.0778465 0.0778425,-0.0778465l0.530787 0 0 -0.17739c0,-0.0305551 0.0249961,-0.0555472 0.0555472,-0.0555472l0.567835 0c0.24289,0 0.454437,0.141059 0.556764,0.345303l0.147677 0c0.126091,0 0.230575,0.0972205 0.242197,0.220402l0.000767717 0 0 -0.00023622c0.275232,0 0.459339,-0.0141772 0.567909,-0.0913858 0.104157,-0.0740709 0.14726,-0.21713 0.147941,-0.478776l0.00398819 -2.46246 0.121161 0zm-3.61722 -0.0218268l0.967016 0 0.967035 0c0.0618465,0 0.112445,0.0506024 0.112445,0.112445l0 1.93406c0,0.0618465 -0.0505984,0.112445 -0.112445,0.112445l-0.967035 0 -0.967016 0c-0.0618465,0 -0.112445,-0.0505984 -0.112445,-0.112445l0 -1.93406c0,-0.0618425 0.0505984,-0.112445 0.112445,-0.112445z"/>
   </g>
  </g>
  <path class="fil2" d="M3.41333 -3.93701e-006c1.88513,0 3.41333,1.5282 3.41333,3.41333 0,1.88513 -1.5282,3.41333 -3.41333,3.41333 -1.88513,0 -3.41333,-1.5282 -3.41333,-3.41333 0,-1.88513 1.5282,-3.41333 3.41333,-3.41333z"/>
  <path class="fil3" d="M1.66094 1.54667l1.93405 0c0.0618465,0 0.112445,0.0505945 0.112445,0.112441l0 1.93406c0,0.0618465 -0.0505984,0.112445 -0.112445,0.112445l-1.93405 0c-0.0618465,0 -0.112445,-0.0505984 -0.112445,-0.112445l0 -1.93406c0,-0.0618465 0.0505984,-0.112441 0.112445,-0.112441z"/>
  <path class="fil2" d="M1.88865 1.81654l1.47864 0c0.0386535,0 0.0702756,0.031622 0.0702756,0.0702795l0 1.47864c0,0.0386535 -0.031622,0.0702756 -0.0702756,0.0702756l-1.47864 0c-0.0386535,0 -0.0702756,-0.031622 -0.0702756,-0.0702756l0 -1.47864c0,-0.0386575 0.031622,-0.0702795 0.0702756,-0.0702795z"/>
  <path class="fil4" d="M2.62796 1.99646c0.347764,0 0.629685,0.281921 0.629685,0.629685 0,0.347764 -0.281921,0.629681 -0.629685,0.629681 -0.347764,0 -0.629681,-0.281917 -0.629681,-0.629681 0,-0.347764 0.281917,-0.629685 0.629681,-0.629685z"/>
  <path class="fil5" d="M2.09463 2.96096c-0.0484567,-0.0770354 -0.080685,-0.165295 -0.0919016,-0.260008l0.0919016 0 0 0.260008z"/>
  <path class="fil5" d="M2.00272 2.55133c0.0112244,-0.0947087 0.0434409,-0.182976 0.0919016,-0.260008l0 0.260008 -0.0919016 0z"/>
  <path class="fil5" d="M3.2532 2.70095c-0.0112205,0.0947047 -0.043437,0.182972 -0.0919016,0.260008l0 -0.260008 0.0919016 0z"/>
  <path class="fil5" d="M3.1613 2.29133c0.0484567,0.0770354 0.080689,0.165291 0.0919016,0.260008l-0.0919016 0 0 -0.260008z"/>
  <path class="fil6" d="M2.62796 1.96835c0.181642,0 0.346091,0.073626 0.46513,0.192665 0.119039,0.119039 0.192665,0.283488 0.192665,0.46513 0,0.181642 -0.073626,0.346091 -0.192665,0.46513 -0.119039,0.119035 -0.283488,0.192665 -0.46513,0.192665 -0.181642,0 -0.346091,-0.0736299 -0.46513,-0.192665 -0.119035,-0.119039 -0.192665,-0.283488 -0.192665,-0.46513 0,-0.181642 0.0736299,-0.346091 0.192665,-0.46513 0.119039,-0.119039 0.283488,-0.192665 0.46513,-0.192665zm0.425378 0.232417c-0.108862,-0.108858 -0.259256,-0.176193 -0.425378,-0.176193 -0.166122,0 -0.316516,0.0673346 -0.425378,0.176193 -0.108858,0.108862 -0.176193,0.259256 -0.176193,0.425378 0,0.166122 0.0673346,0.316516 0.176193,0.425378 0.108862,0.108858 0.259256,0.176193 0.425378,0.176193 0.166122,0 0.316516,-0.0673346 0.425378,-0.176193 0.108858,-0.108862 0.176193,-0.259256 0.176193,-0.425378 0,-0.166122 -0.0673346,-0.316516 -0.176193,-0.425378z"/>
  <path class="fil7" d="M2.3877 2.62616c0,0.0249252 -0.0100866,0.0474803 -0.0264094,0.0637953 -0.0161535,0.0161496 -0.0383504,0.0261378 -0.0627677,0.0261378 -0.0244213,0 -0.0466142,-0.00998819 -0.0627677,-0.0261339 -0.0163189,-0.0163189 -0.0264094,-0.038874 -0.0264094,-0.0637992 0,-0.024937 0.0100866,-0.0475 0.0264055,-0.0638228 0.0161496,-0.0161575 0.0383504,-0.0261457 0.0627717,-0.0261457 0.0244173,0 0.0466181,0.00999213 0.0627717,0.0261457 0.0163189,0.0163228 0.0264055,0.0388858 0.0264055,0.0638228z"/>
  <path class="fil7" d="M3.04659 2.62616c0,0.0249252 -0.0100906,0.0474803 -0.0264134,0.0637953 -0.0161535,0.0161496 -0.0383504,0.0261378 -0.0627677,0.0261378 -0.0244213,0 -0.0466181,-0.00998819 -0.0627717,-0.0261339 -0.016315,-0.0163189 -0.0264094,-0.038874 -0.0264094,-0.0637992 0,-0.024937 0.0100906,-0.0475 0.0264094,-0.0638228 0.0161496,-0.0161575 0.0383504,-0.0261457 0.0627717,-0.0261457 0.0244213,0 0.0466181,0.00999213 0.0627717,0.0261457 0.0163189,0.0163228 0.0264094,0.0388858 0.0264094,0.0638228z"/>
  <path class="fil5" d="M2.62796 2.58117c0.024626,0 0.0445906,0.0201339 0.0445906,0.0449764 0,0.0248386 -0.0199646,0.0449764 -0.0445906,0.0449764 -0.024626,0 -0.0445906,-0.0201378 -0.0445906,-0.0449764 0,-0.0248425 0.0199646,-0.0449764 0.0445906,-0.0449764z"/>
  <path class="fil5" d="M2.62796 1.9824l3.93701e-006 0c0.0247362,0 0.0449764,0.0202402 0.0449764,0.0449764l0 3.93701e-006c0,0.0247362 -0.0202402,0.0449764 -0.0449764,0.0449764l-3.93701e-006 0c-0.0247402,0 -0.0449764,-0.0202402 -0.0449764,-0.0449764l0 -3.93701e-006c0,-0.0247362 0.0202362,-0.0449764 0.0449764,-0.0449764z"/>
  <path class="fil5" d="M2.62796 3.17993l3.93701e-006 0c0.0247362,0 0.0449764,0.0202362 0.0449764,0.0449764l0 0c0,0.0247402 -0.0202402,0.0449803 -0.0449764,0.0449803l-3.93701e-006 0c-0.0247402,0 -0.0449764,-0.0202402 -0.0449764,-0.0449803l0 0c0,-0.0247402 0.0202362,-0.0449764 0.0449764,-0.0449764z"/>
  <path class="fil3" d="M1.66094 1.54667l1.93405 0c0.0618465,0 0.112445,0.0505945 0.112445,0.112441l0 1.93406c0,0.0618465 -0.0505984,0.112445 -0.112445,0.112445l-1.93405 0c-0.0618465,0 -0.112445,-0.0505984 -0.112445,-0.112445l0 -1.93406c0,-0.0618465 0.0505984,-0.112441 0.112445,-0.112441z"/>
  <path class="fil8" d="M1.88865 1.79896l1.47864 0c0.0241772,0 0.0461417,0.00987795 0.0620551,0.0257913 0.0159134,0.0159134 0.0257913,0.0378819 0.0257913,0.0620591l0 1.47864c0,0.0241732 -0.00987795,0.0461417 -0.0257913,0.0620551 -0.0159134,0.0159134 -0.037878,0.0257913 -0.0620551,0.0257913l-1.47864 0c-0.0241772,0 -0.0461417,-0.00987795 -0.0620551,-0.0257913 -0.0159134,-0.0159134 -0.0257913,-0.0378819 -0.0257913,-0.0620551l0 -1.47864c0,-0.0241772 0.00987795,-0.0461457 0.0257913,-0.0620591 0.0159134,-0.0159134 0.037878,-0.0257913 0.0620551,-0.0257913zm1.47864 0.0351417l-1.47864 0c-0.0144764,0 -0.0276496,0.00593701 -0.0372126,0.0154961 -0.00955906,0.00955906 -0.0154921,0.0227362 -0.0154921,0.0372126l0 1.47864c0,0.0144764 0.00593307,0.0276496 0.0154921,0.0372087 0.00956299,0.00956299 0.0227362,0.0154961 0.0372126,0.0154961l1.47864 0c0.0144764,0 0.0276496,-0.00593307 0.0372126,-0.0154961 0.00955906,-0.00955906 0.0154921,-0.0227323 0.0154921,-0.0372087l0 -1.47864c0,-0.0144764 -0.00593307,-0.0276535 -0.0154921,-0.0372126 -0.00956299,-0.00955906 -0.0227362,-0.0154961 -0.0372126,-0.0154961z"/>
  <path class="fil9" d="M2.62796 1.99646c0.347764,0 0.629685,0.281921 0.629685,0.629685 0,0.347764 -0.281921,0.629681 -0.629685,0.629681 -0.347764,0 -0.629681,-0.281917 -0.629681,-0.629681 0,-0.347764 0.281917,-0.629685 0.629681,-0.629685z"/>
  <path class="fil5" d="M2.09463 2.96096c-0.0484567,-0.0770354 -0.080685,-0.165295 -0.0919016,-0.260008l0.0919016 0 0 0.260008z"/>
  <path class="fil5" d="M2.00272 2.55133c0.0112244,-0.0947087 0.0434409,-0.182976 0.0919016,-0.260008l0 0.260008 -0.0919016 0z"/>
  <path class="fil5" d="M3.2532 2.70095c-0.0112205,0.0947047 -0.043437,0.182972 -0.0919016,0.260008l0 -0.260008 0.0919016 0z"/>
  <path class="fil5" d="M3.1613 2.29133c0.0484567,0.0770354 0.080689,0.165291 0.0919016,0.260008l-0.0919016 0 0 -0.260008z"/>
  <path class="fil10" d="M2.62796 1.96835c0.181642,0 0.346091,0.073626 0.46513,0.192665 0.119039,0.119039 0.192665,0.283488 0.192665,0.46513 0,0.181642 -0.073626,0.346091 -0.192665,0.46513 -0.119039,0.119035 -0.283488,0.192665 -0.46513,0.192665 -0.181642,0 -0.346091,-0.0736299 -0.46513,-0.192665 -0.119035,-0.119039 -0.192665,-0.283488 -0.192665,-0.46513 0,-0.181642 0.0736299,-0.346091 0.192665,-0.46513 0.119039,-0.119039 0.283488,-0.192665 0.46513,-0.192665zm0.425378 0.232417c-0.108862,-0.108858 -0.259256,-0.176193 -0.425378,-0.176193 -0.166122,0 -0.316516,0.0673346 -0.425378,0.176193 -0.108858,0.108862 -0.176193,0.259256 -0.176193,0.425378 0,0.166122 0.0673346,0.316516 0.176193,0.425378 0.108862,0.108858 0.259256,0.176193 0.425378,0.176193 0.166122,0 0.316516,-0.0673346 0.425378,-0.176193 0.108858,-0.108862 0.176193,-0.259256 0.176193,-0.425378 0,-0.166122 -0.0673346,-0.316516 -0.176193,-0.425378z"/>
  <path class="fil7" d="M2.3877 2.62616c0,0.0249252 -0.0100866,0.0474803 -0.0264094,0.0637953 -0.0161535,0.0161496 -0.0383504,0.0261378 -0.0627677,0.0261378 -0.0244213,0 -0.0466142,-0.00998819 -0.0627677,-0.0261339 -0.0163189,-0.0163189 -0.0264094,-0.038874 -0.0264094,-0.0637992 0,-0.024937 0.0100866,-0.0475 0.0264055,-0.0638228 0.0161496,-0.0161575 0.0383504,-0.0261457 0.0627717,-0.0261457 0.0244173,0 0.0466181,0.00999213 0.0627717,0.0261457 0.0163189,0.0163228 0.0264055,0.0388858 0.0264055,0.0638228z"/>
  <path class="fil7" d="M3.04659 2.62616c0,0.0249252 -0.0100906,0.0474803 -0.0264134,0.0637953 -0.0161535,0.0161496 -0.0383504,0.0261378 -0.0627677,0.0261378 -0.0244213,0 -0.0466181,-0.00998819 -0.0627717,-0.0261339 -0.016315,-0.0163189 -0.0264094,-0.038874 -0.0264094,-0.0637992 0,-0.024937 0.0100906,-0.0475 0.0264094,-0.0638228 0.0161496,-0.0161575 0.0383504,-0.0261457 0.0627717,-0.0261457 0.0244213,0 0.0466181,0.00999213 0.0627717,0.0261457 0.0163189,0.0163228 0.0264094,0.0388858 0.0264094,0.0638228z"/>
  <path class="fil5" d="M2.62796 2.58117c0.024626,0 0.0445906,0.0201339 0.0445906,0.0449764 0,0.0248386 -0.0199646,0.0449764 -0.0445906,0.0449764 -0.024626,0 -0.0445906,-0.0201378 -0.0445906,-0.0449764 0,-0.0248425 0.0199646,-0.0449764 0.0445906,-0.0449764z"/>
  <path class="fil5" d="M2.62796 1.9824l3.93701e-006 0c0.0247362,0 0.0449764,0.0202402 0.0449764,0.0449764l0 3.93701e-006c0,0.0247362 -0.0202402,0.0449764 -0.0449764,0.0449764l-3.93701e-006 0c-0.0247402,0 -0.0449764,-0.0202402 -0.0449764,-0.0449764l0 -3.93701e-006c0,-0.0247362 0.0202362,-0.0449764 0.0449764,-0.0449764z"/>
  <path class="fil5" d="M2.62796 3.17993l3.93701e-006 0c0.0247362,0 0.0449764,0.0202362 0.0449764,0.0449764l0 0c0,0.0247402 -0.0202402,0.0449803 -0.0449764,0.0449803l-3.93701e-006 0c-0.0247402,0 -0.0449764,-0.0202402 -0.0449764,-0.0449803l0 0c0,-0.0247402 0.0202362,-0.0449764 0.0449764,-0.0449764z"/>
  <path class="fil11" d="M2.62796 1.54667l0.967035 0c0.0618465,0 0.112445,0.0505945 0.112445,0.112441l0 1.93406c0,0.0618465 -0.0505984,0.112445 -0.112445,0.112445l-0.967035 0 0 -2.15894z"/>
  <path class="fil12" d="M2.62796 1.79896l0.739331 0c0.0241772,0 0.0461417,0.00987795 0.0620551,0.0257913 0.0159134,0.0159134 0.0257913,0.0378819 0.0257913,0.0620591l0 1.47864c0,0.0241732 -0.00987795,0.0461417 -0.0257913,0.0620551 -0.0159134,0.0159134 -0.037878,0.0257913 -0.0620551,0.0257913l-0.739331 0 0 -0.0351417 0.739331 0c0.0144764,0 0.0276496,-0.00593307 0.0372126,-0.0154961 0.00955906,-0.00955906 0.0154921,-0.0227323 0.0154921,-0.0372087l0 -1.47864c0,-0.0144764 -0.00593307,-0.0276535 -0.0154921,-0.0372126 -0.00956299,-0.00955906 -0.0227362,-0.0154961 -0.0372126,-0.0154961l-0.739331 0 0 -0.0351417z"/>
  <path class="fil13" d="M2.62796 1.99646c0.347764,0 0.629685,0.281921 0.629685,0.629685 0,0.347764 -0.281921,0.629681 -0.629685,0.629681l-3.93701e-006 0 0 -1.25937 3.93701e-006 0z"/>
  <path class="fil5" d="M3.2532 2.70095c-0.0112205,0.0947047 -0.043437,0.182972 -0.0919016,0.260008l0 -0.260008 0.0919016 0z"/>
  <path class="fil5" d="M3.1613 2.29133c0.0484567,0.0770354 0.080689,0.165291 0.0919016,0.260008l-0.0919016 0 0 -0.260008z"/>
  <path class="fil10" d="M2.62796 1.96835c0.181642,0 0.346091,0.073626 0.46513,0.192665 0.119039,0.119039 0.192665,0.283488 0.192665,0.46513 0,0.181642 -0.073626,0.346091 -0.192665,0.46513 -0.119039,0.119035 -0.283488,0.192665 -0.46513,0.192665l-3.93701e-006 0 0 -0.0562244 3.93701e-006 0c0.166122,0 0.316516,-0.0673346 0.425378,-0.176193 0.108858,-0.108862 0.176193,-0.259256 0.176193,-0.425378 0,-0.166122 -0.0673346,-0.316516 -0.176193,-0.425378 -0.108862,-0.108858 -0.259256,-0.176193 -0.425378,-0.176193l-3.93701e-006 0 0 -0.0562244 3.93701e-006 0z"/>
  <path class="fil7" d="M3.04659 2.62616c0,0.0249252 -0.0100906,0.0474803 -0.0264134,0.0637953 -0.0161535,0.0161496 -0.0383504,0.0261378 -0.0627677,0.0261378 -0.0244213,0 -0.0466181,-0.00998819 -0.0627717,-0.0261339 -0.016315,-0.0163189 -0.0264094,-0.038874 -0.0264094,-0.0637992 0,-0.024937 0.0100906,-0.0475 0.0264094,-0.0638228 0.0161496,-0.0161575 0.0383504,-0.0261457 0.0627717,-0.0261457 0.0244213,0 0.0466181,0.00999213 0.0627717,0.0261457 0.0163189,0.0163228 0.0264094,0.0388858 0.0264094,0.0638228z"/>
  <path class="fil5" d="M2.62796 2.58117c0.024626,0 0.0445906,0.0201339 0.0445906,0.0449764 0,0.0248386 -0.0199646,0.0449764 -0.0445906,0.0449764l-3.93701e-006 0 0 -0.0899528 3.93701e-006 0z"/>
  <path class="fil5" d="M2.62796 1.9824l3.93701e-006 0c0.0247362,0 0.0449764,0.0202402 0.0449764,0.0449764l0 3.93701e-006c0,0.0247362 -0.0202402,0.0449764 -0.0449764,0.0449764l-3.93701e-006 0 -3.93701e-006 0 0 -0.0899567 3.93701e-006 0z"/>
  <path class="fil5" d="M2.62796 3.17993l3.93701e-006 0c0.0247362,0 0.0449764,0.0202362 0.0449764,0.0449764l0 0c0,0.0247402 -0.0202402,0.0449803 -0.0449764,0.0449803l-3.93701e-006 0 -3.93701e-006 0 0 -0.0899567 3.93701e-006 0z"/>
  <path class="fil14" d="M5.157 1.56849l-0.00398819 2.46246c-0.000681102,0.261646 -0.0437835,0.404705 -0.147941,0.478776 -0.108571,0.0772087 -0.292677,0.0913858 -0.567909,0.0913858l0 0.00023622 -0.254453 -0.000283465 0 0.121161 0.254453 0.000283465 0 0.000240157c0.299193,0 0.502567,-0.0177165 0.638228,-0.114193 0.140075,-0.0996142 0.197992,-0.272063 0.198783,-0.577606l0.00398819 -2.46246 -0.121161 0z"/>
  <path class="fil15" d="M3.92794 4.93465l0.266252 0c0.133803,0 0.243272,-0.109472 0.243272,-0.243272l0 -0.0671614c0,-0.133795 -0.109472,-0.243268 -0.243272,-0.243268l-0.266252 0 0 0.553701z"/>
  <path class="fil16" d="M2.25774 4.96921l0 0c0,0.0428189 0.0350236,0.0778504 0.0778425,0.0778504l0.622783 0c0.0428189,0 0.0778504,-0.0350315 0.0778504,-0.0778504l0 0c0,-0.0428189 -0.0350315,-0.0778425 -0.0778504,-0.0778425l-0.622783 0c-0.0428189,0 -0.0778425,0.0350236 -0.0778425,0.0778425z"/>
  <path class="fil16" d="M2.25774 4.34643l0 0c0,0.042815 0.0350236,0.0778465 0.0778425,0.0778465l0.622783 0c0.0428189,0 0.0778504,-0.0350315 0.0778504,-0.0778465l0 0c0,-0.0428189 -0.0350315,-0.0778465 -0.0778504,-0.0778465l-0.622783 0c-0.0428189,0 -0.0778425,0.0350276 -0.0778425,0.0778465z"/>
  <path class="fil17" d="M2.92192 5.28l0.567835 0c0.342193,0 0.622173,-0.27998 0.622173,-0.622177l0 -3.93701e-006c0,-0.342201 -0.27998,-0.622173 -0.622173,-0.622173l-0.567835 0c-0.0305512,0 -0.0555472,0.0249921 -0.0555472,0.0555472l0 1.13326c0,0.0305591 0.0249961,0.0555512 0.0555472,0.0555512z"/>
  <path class="fil18" d="M3.14461 5.03355l3.93701e-006 0c0.0260236,0 0.0473071,-0.0212835 0.0473071,-0.0473031l0 -0.683862c0,-0.0260197 -0.0212835,-0.0473071 -0.0473071,-0.0473071l-3.93701e-006 0c-0.0260197,0 -0.0473071,0.0212874 -0.0473071,0.0473071l0 0.683862c0,0.0260197 0.0212874,0.0473031 0.0473071,0.0473031z"/>
  <path class="fil18" d="M3.31692 5.03355l3.93701e-006 0c0.0260236,0 0.0473071,-0.0212835 0.0473071,-0.0473031l0 -0.683862c0,-0.0260197 -0.0212835,-0.0473071 -0.0473071,-0.0473071l-3.93701e-006 0c-0.0260197,0 -0.0473071,0.0212874 -0.0473071,0.0473071l0 0.683862c0,0.0260197 0.0212874,0.0473031 0.0473071,0.0473031z"/>
  <path class="fil18" d="M3.48923 5.03355l7.87402e-006 0c0.0260197,0 0.0473031,-0.0212835 0.0473031,-0.0473031l0 -0.683862c0,-0.0260197 -0.0212835,-0.0473071 -0.0473031,-0.0473071l-7.87402e-006 0c-0.0260197,0 -0.0473071,0.0212874 -0.0473071,0.0473071l0 0.683862c0,0.0260197 0.0212874,0.0473031 0.0473071,0.0473031z"/>
 </g>
</svg>
